<?xml version="1.0" encoding="UTF-8" standalone="no"?>
<svg  viewBox="0 0 424.239 424.239" style="enable-background:new 0 0 424.239 424.239;" xml:space="preserve" version="1.1" xmlns="http://www.w3.org/2000/svg" xmlns:xlink="http://www.w3.org/1999/xlink" preserveAspectRatio="xMinYMin meet">
    <style>
      path {
      fill: #43A6E7;
      }
      circle {
      fill: #43A6E7}
    </style>
    <g id="Page-1" stroke="none" stroke-width="1" fill="none" fill-rule="evenodd">
        <g id="people" fill="#737475">
            <g id="Group">
                <path d="M110.764438,245.558 C115.399271,245.558 119.75644,247.079 123.03381,249.841 C124.887268,251.403 127.316224,252.185 129.746366,252.184 C132.175322,252.184 134.605464,251.403 136.458923,249.841 C140.167026,246.717 140.167026,241.652 136.458923,238.527 C129.595669,232.743 120.470769,229.558 110.765625,229.558 C101.060481,229.558 91.9355811,232.743 85.0723273,238.527 C81.3642242,241.651 81.3642242,246.716 85.0723273,249.841 C88.7804303,252.966 94.7905238,252.965 98.4962536,249.841 C101.772437,247.079 106.129606,245.558 110.764438,245.558 Z" id="Shape" transform="translate(110.765625, 240.871188) scale(1, -1) translate(-110.765625, -240.871188) "></path>
                <path d="M241.781019,238.527 C238.072994,241.651 238.072994,246.716 241.781019,249.841 C245.487859,252.965 251.497827,252.965 255.204666,249.841 C261.969292,244.139 272.978272,244.14 279.742897,249.841 C281.596317,251.403 284.025222,252.184 286.455314,252.184 C288.885406,252.184 291.314311,251.403 293.167731,249.841 C296.875756,246.717 296.875756,241.652 293.167731,238.527 C279.002479,226.588 255.949831,226.587 241.781019,238.527 Z" id="Shape" transform="translate(267.474375, 240.878187) scale(1, -1) translate(-267.474375, -240.878187) "></path>
                <path d="M251.543353,314.182304 C216.766592,354.675089 160.181412,354.675089 125.403889,314.182304 C123.023985,311.411232 119.165403,311.411232 116.785499,314.182304 C114.404834,316.953377 114.404834,321.447056 116.785499,324.218128 C136.549974,347.231158 162.511798,358.737672 188.473621,358.737672 C214.436206,358.737672 240.39803,347.231158 260.162505,324.218128 C262.54317,321.447056 262.54317,316.954264 260.162505,314.182304 C257.782601,311.411232 253.923257,311.411232 251.543353,314.182304 Z" id="Shape"></path>
                <path d="M377.881,254.178 C377.881,232.447 362.171,214.327 341.515,210.548 L341.515,76.715 C341.515,59.353 332.878,43.257 318.411,33.658 C304.822,24.643 287.954,22.597 272.7,27.972 L222.474,10.924 C183.88,-2.177 143.255,-3.521 104.992,7.036 C54.9,20.857 26.182,50.083 21.749,91.627 C17.826,96.801 14.709,102.612 12.591,108.882 L8.695,120.413 C6.604,126.604 8.909,133.11 14.433,136.602 C19.956,140.094 26.823,139.388 31.519,134.843 C33.123,133.29 34.877,131.982 36.723,130.888 L36.723,210.548 C16.067,214.327 0.357,232.446 0.357,254.178 C0.357,276.779 17.348,295.474 39.225,298.192 C44.719,328.528 59.156,356.511 81.231,378.904 C110.052,408.14 148.366,424.24 189.119,424.24 L189.134,424.24 C229.835,424.236 268.099,408.384 296.879,379.605 C319.36,357.124 333.952,328.856 339.265,298.16 C361.02,295.329 377.881,276.691 377.881,254.178 Z M309.565,46.991 C319.702,53.716 325.515,64.55 325.515,76.715 L325.515,181.404 C300.684,177.545 281.618,156.021 281.618,130.125 L280.956,42.165 C290.725,39.59 300.912,41.25 309.565,46.991 Z M26.195,118.604 L27.75,114.003 C31.823,101.948 40.868,92.161 52.565,87.153 C64.261,82.145 77.586,82.353 89.121,87.726 C113.347,99.009 142.634,92.909 160.34,72.893 L162.322,70.652 C165.25,67.343 164.94,62.287 161.631,59.36 C158.321,56.433 153.265,56.742 150.338,60.051 L148.356,62.292 C135.308,77.042 113.727,81.536 95.876,73.222 C80.223,65.931 62.14,65.648 46.267,72.445 C44.822,73.064 43.417,73.755 42.034,74.478 C51.333,49.687 73.839,32.229 109.249,22.459 C144.41,12.757 181.784,14.008 217.333,26.074 L264.956,42.239 L265.58,83.576 C244.375,112.407 213.449,131.924 178.207,138.635 C142.12,145.506 105.306,138.235 74.544,118.161 C59.513,108.354 40.562,108.773 26.195,118.604 Z M16.357,254.178 C16.357,241.315 24.966,230.431 36.723,226.968 L36.723,270.33 C36.723,274.076 36.858,277.801 37.121,281.502 C25.162,278.169 16.357,267.186 16.357,254.178 Z M285.566,368.29 C259.808,394.048 225.561,408.235 189.133,408.239 L189.119,408.239 C152.686,408.239 118.414,393.83 92.625,367.671 C66.894,341.569 52.723,306.999 52.723,270.329 L52.723,127.116 C57.254,127.454 61.75,128.92 65.798,131.561 C100.044,153.908 141.026,162.003 181.198,154.353 C213.807,148.143 243.101,132.09 265.617,108.415 L265.617,130.124 C265.617,164.855 291.834,193.561 325.514,197.534 L325.514,271.842 C325.515,308.276 311.328,342.529 285.566,368.29 Z M341.206,281.476 C341.404,278.282 341.515,275.071 341.515,271.843 L341.515,226.968 C353.272,230.431 361.881,241.315 361.881,254.178 C361.881,267.153 353.121,278.114 341.206,281.476 Z" id="Shape"></path>
            </g>
        </g>
    </g>
</svg>