<?xml version="1.0" encoding="UTF-8" standalone="no"?>
<svg viewBox="0 0 100 53" version="1.1" xmlns="http://www.w3.org/2000/svg" xmlns:xlink="http://www.w3.org/1999/xlink" preserveAspectRatio="xMinYMin meet">

    <g id="Page-1" stroke="none" stroke-width="1" fill="none" fill-rule="evenodd">
        <g id="Group" fill="#FFFFFF">
            <path d="M99.7938136,51.4084322 L99.7938136,32.3092797 C99.7938136,32.3092797 99.7938136,31.0817373 98.5666949,31.0817373 L95.4044068,31.0817373 C95.4044068,31.0817373 94.1772881,31.0817373 94.1772881,32.3092797 L94.1772881,51.4084322 C94.1772881,51.4084322 94.1772881,52.6355508 95.4044068,52.6355508 L98.5666949,52.6355508 C98.5666949,52.6355508 99.7938136,52.6355508 99.7938136,51.4084322 M98.2205085,34.1694492 C98.2205085,34.8516525 97.6675424,35.4041949 96.985339,35.4041949 C96.3035593,35.4041949 95.7505932,34.8516525 95.7505932,34.1694492 C95.7505932,33.4872458 96.3035593,32.9342797 96.985339,32.9342797 C97.6675424,32.9342797 98.2205085,33.4872458 98.2205085,34.1694492 M98.2205085,49.8791949 C98.2205085,50.5613983 97.6675424,51.1143644 96.985339,51.1143644 C96.3035593,51.1143644 95.7505932,50.5613983 95.7505932,49.8791949 C95.7505932,49.1969915 96.3035593,48.6440254 96.985339,48.6440254 C97.6675424,48.6440254 98.2205085,49.1969915 98.2205085,49.8791949 M90.7738983,51.4084322 L90.7738983,32.3402119 C90.7738983,31.8495339 90.6726271,31.0817373 89.7887288,31.0817373 L88.3141525,31.0817373 C88.3141525,31.0817373 87.0870339,31.0817373 86.14,31.8622458 L80.9255932,36.1609746 C80.9255932,36.1609746 79.9785593,36.9410593 79.0332203,36.1592797 L73.2281356,31.3580085 C73.2281356,31.3580085 72.8942373,31.0817373 72.4611864,31.0817373 L70.4472034,31.0817373 C70.4472034,31.0817373 69.2200847,31.0817373 69.2200847,32.3092797 L69.2200847,51.4084322 C69.2200847,51.4084322 69.2200847,52.6355508 70.4472034,52.6355508 L73.6090678,52.6355508 C73.6090678,52.6355508 74.8361864,52.6355508 74.8361864,51.4084322 L74.8361864,41.1952966 C74.8361864,41.1952966 74.8361864,39.968178 75.780678,40.7520763 L79.0340678,43.4520763 C79.0340678,43.4520763 79.9785593,44.2351271 80.9260169,43.4546186 L84.210339,40.7486864 C84.210339,40.7486864 85.1573729,39.968178 85.1573729,41.1952966 L85.1573729,51.4084322 C85.1573729,51.4084322 85.1573729,52.6355508 86.3849153,52.6355508 L89.5467797,52.6355508 C89.5467797,52.6355508 90.7738983,52.6355508 90.7738983,51.4084322 M73.3183898,34.0054661 C73.3183898,34.6872458 72.7654237,35.2406356 72.0832203,35.2406356 C71.4010169,35.2406356 70.8480508,34.6872458 70.8480508,34.0054661 C70.8480508,33.3232627 71.4010169,32.7702966 72.0832203,32.7702966 C72.7654237,32.7702966 73.3183898,33.3232627 73.3183898,34.0054661 M73.3183898,49.8791949 C73.3183898,50.5613983 72.7654237,51.1143644 72.0832203,51.1143644 C71.4010169,51.1143644 70.8480508,50.5613983 70.8480508,49.8791949 C70.8480508,49.1969915 71.4010169,48.6440254 72.0832203,48.6440254 C72.7654237,48.6440254 73.3183898,49.1969915 73.3183898,49.8791949 M89.1908475,34.0054661 C89.1908475,34.6872458 88.6378814,35.2406356 87.955678,35.2406356 C87.2738983,35.2406356 86.7209322,34.6872458 86.7209322,34.0054661 C86.7209322,33.3232627 87.2738983,32.7702966 87.955678,32.7702966 C88.6378814,32.7702966 89.1908475,33.3232627 89.1908475,34.0054661 M89.1908475,49.8791949 C89.1908475,50.5613983 88.6378814,51.1143644 87.955678,51.1143644 C87.2738983,51.1143644 86.7209322,50.5613983 86.7209322,49.8791949 C86.7209322,49.1969915 87.2738983,48.6440254 87.955678,48.6440254 C88.6378814,48.6440254 89.1908475,49.1969915 89.1908475,49.8791949 M65.8166949,51.4084322 L65.8166949,48.2465678 C65.8166949,48.2465678 65.8166949,47.0194492 64.5895763,47.0194492 L50.7450847,47.0194492 L50.7450847,45.8342797 C50.7450847,45.8342797 50.7450847,44.6486864 51.9722034,44.6486864 L64.5895763,44.6486864 C64.5895763,44.6486864 65.8166949,44.6486864 65.8166949,43.4215678 L65.8166949,32.3092797 C65.8166949,32.3092797 65.8166949,31.0817373 64.5895763,31.0817373 L46.355678,31.0817373 C46.355678,31.0817373 45.1285593,31.0817373 45.1285593,32.3092797 L45.1285593,37.7694492 C45.1285593,37.7694492 45.1285593,38.9961441 43.9014407,38.9961441 L38.294661,38.9961441 C38.294661,38.9961441 37.0675424,38.9961441 37.0675424,40.2236864 L37.0675424,43.3516525 C37.0675424,43.3516525 37.0675424,44.5791949 38.294661,44.5791949 L43.9014407,44.5791949 C43.9014407,44.5791949 45.1285593,44.5791949 45.1285593,45.8058898 L45.1285593,51.4084322 C45.1285593,51.4084322 45.1285593,52.6355508 46.355678,52.6355508 L64.5895763,52.6355508 C64.5895763,52.6355508 65.8166949,52.6355508 65.8166949,51.4084322 M49.3052542,41.7135169 C49.3052542,42.3952966 48.7522881,42.9482627 48.0700847,42.9482627 C47.3878814,42.9482627 46.8349153,42.3952966 46.8349153,41.7135169 C46.8349153,41.0313136 47.3878814,40.4783475 48.0700847,40.4783475 C48.7522881,40.4783475 49.3052542,41.0313136 49.3052542,41.7135169 M50.7450847,38.5635169 L50.7450847,37.8474153 C50.7450847,37.8474153 50.7450847,36.697839 51.9722034,36.697839 L60.2001695,36.697839 L60.2001695,37.8652119 C60.2001695,37.8652119 60.2001695,39.032161 58.9730508,39.032161 L51.9544068,38.9961441 L51.1781356,38.9961441 C51.1781356,38.9961441 50.7450847,38.9961441 50.7450847,38.5635169 M64.1531356,49.8791949 C64.1531356,50.5613983 63.6001695,51.1143644 62.9179661,51.1143644 C62.2361864,51.1143644 61.6832203,50.5613983 61.6832203,49.8791949 C61.6832203,49.1969915 62.2361864,48.6440254 62.9179661,48.6440254 C63.6001695,48.6440254 64.1531356,49.1969915 64.1531356,49.8791949 M41.7251695,35.4711441 L41.7251695,32.3092797 C41.7251695,32.3092797 41.7251695,31.0817373 40.4980508,31.0817373 L21.3984746,31.0817373 C21.3984746,31.0817373 20.1709322,31.0817373 20.1709322,32.3092797 L20.1709322,35.4711441 C20.1709322,35.4711441 20.1709322,36.697839 21.3984746,36.697839 L26.8213559,36.697839 C26.8213559,36.697839 28.0488983,36.697839 28.0488983,37.9253814 L28.0488983,51.4084322 C28.0488983,51.4084322 28.0488983,52.6355508 29.2760169,52.6355508 L32.474322,52.6355508 C32.474322,52.6355508 33.7014407,52.6355508 33.7014407,51.4084322 L33.7014407,37.9253814 C33.7014407,37.9253814 33.7014407,36.697839 34.9289831,36.697839 L40.4980508,36.697839 C40.4980508,36.697839 41.7251695,36.697839 41.7251695,35.4711441 M32.0061017,34.0054661 C32.0061017,34.6872458 31.4531356,35.2406356 30.7709322,35.2406356 C30.0891525,35.2406356 29.5361864,34.6872458 29.5361864,34.0054661 C29.5361864,33.3232627 30.0891525,32.7702966 30.7709322,32.7702966 C31.4531356,32.7702966 32.0061017,33.3232627 32.0061017,34.0054661 M16.7675424,35.4711441 L16.7675424,32.3092797 C16.7675424,32.3092797 16.7675424,31.0817373 15.5404237,31.0817373 L1.38661017,31.0817373 C1.38661017,31.0817373 0.159491525,31.0817373 0.159491525,32.3092797 L0.159491525,43.4215678 C0.159491525,43.4215678 0.159491525,44.6486864 1.38661017,44.6486864 L18.4455085,44.6486864 L18.4455085,45.8342797 C18.4455085,45.8342797 18.4455085,47.0194492 17.2179661,47.0194492 L1.38661017,47.0194492 C1.38661017,47.0194492 0.159491525,47.0194492 0.159491525,48.2465678 L0.159491525,51.4084322 C0.159491525,51.4084322 0.159491525,52.6355508 1.38661017,52.6355508 L22.8344915,52.6355508 C22.8344915,52.6355508 24.0616102,52.6355508 24.0616102,51.4084322 L24.0616102,40.2592797 C24.0616102,40.2592797 24.0616102,39.032161 22.8344915,39.032161 L6.2090678,39.032161 C6.2090678,39.032161 5.77601695,39.032161 5.77601695,38.5995339 L5.77601695,37.8652119 C5.77601695,37.8652119 5.77601695,36.697839 7.00313559,36.697839 L15.5404237,36.697839 C15.5404237,36.697839 16.7675424,36.697839 16.7675424,35.4711441 M19.8183898,49.8791949 C19.8183898,49.1969915 20.3713559,48.6440254 21.0531356,48.6440254 C21.735339,48.6440254 22.2883051,49.1969915 22.2883051,49.8791949 C22.2883051,50.5613983 21.735339,51.1143644 21.0531356,51.1143644 C20.3713559,51.1143644 19.8183898,50.5613983 19.8183898,49.8791949 M4.49635593,34.0054661 C4.49635593,34.6872458 3.94338983,35.2406356 3.26118644,35.2406356 C2.57898305,35.2406356 2.02601695,34.6872458 2.02601695,34.0054661 C2.02601695,33.3232627 2.57898305,32.7702966 3.26118644,32.7702966 C3.94338983,32.7702966 4.49635593,33.3232627 4.49635593,34.0054661" id="Fill-3"></path>
            <path d="M40.9666525,4.55555085 C41.4975847,2.29072034 42.8102966,0.791991525 45.0577542,0.234364407 C46.7420763,-0.183008475 48.283178,0.212754237 49.6344492,1.30555085 C49.7912288,1.43266949 49.9026695,1.45258475 50.0611441,1.31868644 C51.2132627,0.346652542 52.5696186,-0.0215677966 54.0361441,0.140720339 C56.2200424,0.38309322 57.9946186,1.95004237 58.5645339,4.01614407 C58.5916525,4.11402542 58.6285169,4.20894068 58.6641102,4.31444915 C59.5107203,4.29792373 60.3488559,4.25894068 61.1564831,4.55724576 C63.0823305,5.26783898 64.2662288,6.61529661 64.7124153,8.62292373 C64.8967373,9.45300847 64.8327542,10.2644492 64.6136864,11.0708051 C64.5687712,11.2364831 64.5844492,11.2924153 64.7526695,11.3657203 C65.8361441,11.8390254 66.7242797,12.5538559 67.3009746,13.5979237 C67.8013983,14.5034322 67.9475847,15.5055508 67.9899576,16.5254661 C68.0408051,17.7593644 67.5573305,18.7949576 66.7967373,19.7263136 C65.9840254,20.7220763 64.9293644,21.3097881 63.6797881,21.5597881 C63.4247034,21.6110593 63.1624153,21.6398729 62.9022458,21.6530085 C61.9263983,21.7025847 60.9475847,21.7119068 59.9747034,21.7962288 C59.5047881,21.8364831 59.0357203,21.9775847 58.5857203,22.1305508 C58.2763983,22.2356356 55.4399576,24.5979237 52.6314831,23.8335169 C50.0920763,23.1424153 50.0052119,22.3225 49.5980085,21.8487712 C49.4535169,21.6809746 49.3107203,21.5860593 49.0679237,21.5864831 C45.1200424,21.5953814 41.1717373,21.6089407 37.2238559,21.5822458 C35.9713136,21.5737712 34.847161,21.1356356 33.8751271,20.313178 C32.8916525,19.481822 32.283178,18.4330932 32.0530932,17.1847881 C31.7670763,15.6347881 32.147161,14.2229237 33.0933475,12.9644492 C33.6141102,12.2720763 34.2852966,11.7669915 35.0526695,11.3746186 C35.1310593,11.3343644 35.1933475,11.1491949 35.1738559,11.0487712 C34.8543644,9.37419492 35.1649576,7.85894068 36.2454661,6.51233051 C37.1272458,5.41360169 38.2797881,4.80088983 39.6458898,4.5725 C39.9819068,4.5165678 40.3348729,4.55851695 40.6797881,4.55555085 C40.7823305,4.55470339 40.8848729,4.55555085 40.9666525,4.55555085 L40.9666525,4.55555085 Z M49.0098729,19.8144492 C49.0098729,19.6453814 48.9857203,19.5038559 49.0136864,19.3737712 C49.4175,17.4902966 50.6162288,16.2398729 52.2535169,15.3513136 C52.5865678,15.1708051 52.9039407,15.2610593 53.1933475,15.5530085 C53.4382627,15.8000424 53.5433475,16.1873305 53.3522458,16.4674153 C53.1975847,16.6941102 52.9530932,16.8725 52.7200424,17.0301271 C51.7886864,17.6606356 50.9925,18.4034322 50.7513983,19.552161 C50.6827542,19.8797034 50.697161,19.9754661 50.8365678,20.5716525 C51.2450424,22.3225 54.7819068,22.6780085 55.7776695,21.7894492 C56.3886864,21.2436864 57.1967373,20.7797034 58.0454661,20.4555508 C59.2666525,19.9894492 60.551822,19.9424153 61.8352966,19.8894492 C62.3170763,19.8691102 62.8026695,19.8784322 63.2797881,19.8212288 C65.4619915,19.5610593 66.8929237,17.0750424 66.0450424,15.0377542 C65.5251271,13.7898729 64.6272458,13.0102119 63.2717373,12.7830932 C62.5196186,12.6572458 62.2539407,12.0542797 62.6111441,11.363178 C63.0047881,10.6017373 63.1759746,9.79199153 62.9916525,8.9445339 C62.5225847,6.78266949 60.3937712,5.55470339 58.3022458,6.25300847 C57.5683475,6.49834746 56.9899576,6.10300847 56.9865678,5.33351695 C56.9823305,4.45936441 56.6598729,3.70216102 56.0865678,3.06233051 C54.6047881,1.40936441 51.9454661,1.46275424 50.537839,3.33097458 C50.2009746,3.77758475 49.4941949,3.77885593 49.1535169,3.33902542 C48.1980085,2.10427966 46.958178,1.62716102 45.4263983,1.95809322 C43.9789407,2.27038136 42.8708898,3.52588983 42.726822,4.99877119 C42.7022458,5.24834746 42.6759746,5.49834746 42.6649576,5.74877119 C42.6408051,6.30682203 42.0908051,6.65258475 41.5013983,6.46614407 C40.9047881,6.27758475 40.3026695,6.25004237 39.6886864,6.36614407 C38.8539407,6.52334746 38.1713136,6.94029661 37.6391102,7.59114407 C37.1543644,8.18436441 36.858178,8.85809322 36.8323305,9.64241525 C36.8107203,10.2915678 36.9094492,10.902161 37.1937712,11.4949576 C37.4586017,12.0475 37.1530932,12.5915678 36.5467373,12.7263136 C34.7840254,13.117839 33.4497034,14.9136017 33.7903814,16.7852119 C34.0047881,17.9627542 34.6183475,18.8241949 35.6683475,19.4000424 C36.6535169,19.9398729 37.7187712,19.8127542 38.7696186,19.8161441 C38.8234322,19.8165678 38.9119915,19.7080932 38.926822,19.638178 C39.0030932,19.2830932 39.0327542,18.9165678 39.1289407,18.567839 C39.5683475,16.9720763 40.3806356,15.6284322 41.8052119,14.7136017 C42.0052119,14.5852119 42.3153814,14.5047034 42.3827542,14.3284322 C42.4480085,14.1589407 42.2573305,13.8962288 42.1929237,13.6703814 C41.9530932,12.8305508 41.9115678,12.006822 42.4297881,11.2419915 C42.7636864,10.7496186 43.2501271,10.6555508 43.7255508,10.9538559 C44.0675,11.1686864 44.1874153,11.7534322 43.8755508,12.2055508 C43.7552119,12.3792797 43.7395339,12.6623305 43.7619915,12.8873305 C43.7857203,13.1280085 43.9170763,13.3563983 43.9882627,13.5945339 C44.051822,13.806822 44.1691949,13.888178 44.4005508,13.8780085 C44.8696186,13.8576695 45.3450424,13.8297034 45.8090254,13.881822 C46.4988559,13.9593644 47.187839,14.0754661 47.8645339,14.2292797 C48.3310593,14.3347881 48.5526695,14.8237712 48.4289407,15.2860593 C48.3399576,15.6174153 47.7925,15.9839407 47.3785169,15.8576695 C46.3090254,15.5305508 45.2056356,15.4547034 44.0954661,15.6411441 C43.2573305,15.781822 42.5344492,16.1665678 41.9530932,16.7809746 C41.3696186,17.3970763 41.0141102,18.1508898 40.7848729,18.9619068 C40.7077542,19.2335169 40.6725847,19.5165678 40.6145339,19.8144492 L49.0098729,19.8144492 Z" id="Fill-7"></path>
            <path d="M51.1105932,6.36885593 C51.6432203,5.96080508 52.1262712,5.54258475 52.6567797,5.19851695 C53.1169492,4.89978814 53.6258475,4.67055085 54.204661,4.68707627 C54.5381356,4.69682203 54.854661,4.95275424 54.9419492,5.29851695 C55.045339,5.70783898 54.9258475,6.04470339 54.5949153,6.21927966 C54.4504237,6.29597458 54.2885593,6.34300847 54.1317797,6.3934322 C52.8165254,6.81800847 51.9305085,7.97139831 51.7720339,9.33580508 C51.6847458,10.0879237 51.7665254,10.8167373 51.8487288,11.5536017 C51.9283898,12.2658898 51.5322034,12.5103814 51.0758475,12.5904661 C50.6567797,12.6641949 50.2021186,12.2349576 50.15,11.7184322 C50.0894068,11.1154661 50.0080508,10.5074153 50.0326271,9.90529661 C50.0576271,9.30741525 50.2072034,8.71504237 50.2911017,8.1184322 C50.3038136,8.02860169 50.2894068,7.88283898 50.2317797,7.84258475 C49.4728814,7.31038136 48.6508475,6.95911017 47.6970339,7.02478814 C46.9665254,7.07478814 46.3097458,7.35741525 45.7521186,7.79682203 C45.2474576,8.19427966 44.8084746,8.68072034 44.3716102,9.15614407 C44.0584746,9.49724576 43.5550847,9.61207627 43.195339,9.35911017 C42.7754237,9.06504237 42.6724576,8.58283898 42.970339,8.16122881 C43.5686441,7.31334746 44.3283898,6.63538136 45.2182203,6.10275424 C46.1139831,5.56673729 47.0771186,5.29258475 48.1292373,5.31673729 C49.0377119,5.3375 50.2177966,5.7404661 51.1105932,6.36885593" id="Fill-9"></path>
            <path d="M63.5026695,16.3200424 C63.4992797,17.012839 63.2395339,17.2937712 62.6098729,17.2848729 C62.1780932,17.2785169 61.8310593,16.9132627 61.8005508,16.4179237 C61.662839,14.1903814 60.1052119,12.2836017 57.908178,11.7102966 C57.5670763,11.6217373 57.2230085,11.5458898 56.8797881,11.4653814 C56.3645339,11.3441949 56.1319068,11.0429237 56.1619915,10.5352966 C56.1844492,10.1619915 56.5314831,9.78699153 56.9501271,9.78317797 C57.2742797,9.77978814 57.601822,9.87597458 57.9238559,9.94631356 C59.2772458,10.2416525 60.4840254,10.8403814 61.4679237,11.8158051 C62.5543644,12.8925 63.2043644,14.2119915 63.4416525,15.7289407 C63.4577542,15.8319068 63.4895339,15.9323305 63.5005508,16.0352966 C63.5107203,16.1293644 63.5026695,16.2251271 63.5026695,16.3200424" id="Fill-11"></path>
        </g>
    </g>
</svg>